<?xml version="1.0" encoding="utf-8"?>
<!-- Generator: Adobe Illustrator 24.0.0, SVG Export Plug-In . SVG Version: 6.00 Build 0)  -->
<svg version="1.1" id="Layer_1" xmlns="http://www.w3.org/2000/svg" xmlns:xlink="http://www.w3.org/1999/xlink" x="0px" y="0px"
	 viewBox="0 0 800 600" style="enable-background:new 0 0 800 600;" xml:space="preserve">
<style type="text/css">
	.st0{fill-rule:evenodd;clip-rule:evenodd;fill:#FFFFFF;}
	.st1{fill-rule:evenodd;clip-rule:evenodd;fill:#EC1C24;}
	.st2{fill-rule:evenodd;clip-rule:evenodd;fill:#231F20;}
	.st3{fill-rule:evenodd;clip-rule:evenodd;fill:#005665;}
	.st4{fill-rule:evenodd;clip-rule:evenodd;fill:#419CD6;}
</style>
<g>
	<polygon class="st0" points="127.9,28.2 672.1,28.2 672.1,571.8 127.9,571.8 127.9,28.2 	"/>
	<polygon class="st1" points="609.3,161.7 609.3,122.4 637.1,122.4 637.1,227.5 608.7,227.5 608.7,186.4 577.3,186.4 577.3,228.1 
		548.9,228.1 548.9,122.4 576.7,122.4 576.7,161.7 609.3,161.7 	"/>
	<path class="st1" d="M517.5,157.4l22.4-14.5c-6-9.7-16.3-17.5-26.6-20.5c-18.7-6-38.7,0-51.3,14.5c-14.5,17.5-16.3,46.5-6,67
		c9.1,16.3,26,26,44.7,26c12.7,0,30.8-7.3,39.3-22.3l-22.4-14.5c-1.8,4.2-7.2,9.1-12.1,10.3c-6,2.4-15.7,0-21.2-5.4
		c-9.1-9.7-10.3-26.6-5.4-38.1c3.6-7.9,12.1-14.5,20.5-14.5C507.2,145.4,513.8,150.8,517.5,157.4L517.5,157.4z"/>
	<path class="st1" d="M256.5,176.2c1.2-27.8,12.1-43.5,30.8-51.9c13.3-6,33.2-4.8,47.7,7.3c3.6,3,7.3,6.6,9.7,10.9
		c12.1,20.5,11.5,44.7,2.4,62.2c-9.1,16.3-25.4,25.4-44.1,25.4c-13.9-0.6-32-10.3-39.9-26C260.2,196.1,256.5,185.2,256.5,176.2
		l26-1.2c0,6,1.8,12.7,4.2,17.5c4.2,7.3,11.5,12.7,19.9,11.5c7.9,0,15.1-6.6,18.1-13.3c4.8-12.7,3.6-26-2.4-35
		c-4.2-6-8.5-7.8-13.9-8.5c-7.3-1.2-13.3,0-18.7,6.1c-4.8,6-6.6,13.9-7.3,21.7L256.5,176.2L256.5,176.2z"/>
	<path class="st1" d="M162.3,156.8v70.7h54.4c13.9,0,26-7.2,30.8-18.1c4.2-9.7,2.4-21.7-5.4-29.6c-4.2-4.2-6.6-5.4-9.7-6
		c3-1.8,6.6-5.4,8.5-7.9c5.4-7.9,5.4-19.9-0.6-29.6c-6-9.7-16.3-13.9-29-13.9h-48.9V156.8h26v-12.1h19.3c3,0,6,0.6,8.5,4.2
		c1.8,2.4,2.4,7.3,0.6,10.3c-1.2,3-4.8,4.8-7.3,4.8h-17.5v21.1h18.7c2.4,0,6,0.6,8.5,4.2c3,3.6,2.4,8.5,0.6,11.5
		c-2.4,4.2-6,4.8-10.3,4.8h-21.1v-20.5h3.6v-21.1h-3.6v-7.3H162.3L162.3,156.8z"/>
	<path class="st1" d="M439.6,135.1c-4.8-4.2-10.3-7.9-16.3-10.3c-21.8-9.1-39.3-4.8-50.7,6c-9.7,7.9-12.1,21.1-8.5,32.6
		c3.6,8.5,10.3,15.7,19.9,18.7c10.9,3.6,16.3,4.2,23,6.1c6,0.6,10.3,6.6,7.2,12.7c-1.2,3-5.4,6.1-9.7,6.1
		c-10.9,0.6-21.7-7.3-29.6-13.3L358,211.2c8.5,8.5,16.9,13.3,27.2,16.3c13.9,4.2,35.6,3.6,47.1-8.5c9.1-8.5,11.5-20.5,8.4-32.6
		c-5.4-17.5-24.8-21.1-30.8-22.3c-11.5-2.4-18.1-3-20.5-9.7c-0.6-3,0-6.6,3-8.5c10.3-6.7,23,0,31.4,6L439.6,135.1L439.6,135.1z"/>
	<path class="st2" d="M460.7,448.6c0,33.2-27.2,61-61,61c-33.8,0-61-27.8-61-61c0-33.8,27.2-61.6,61-61.6
		C433.5,387,460.7,414.8,460.7,448.6h-7.3c0-30.2-24.1-54.4-53.8-54.4c-30.2,0-54.4,24.2-54.4,54.4c0,29.6,24.2,53.8,54.4,53.8
		c29.6,0,53.8-24.2,53.8-53.8H460.7L460.7,448.6z"/>
	<path class="st2" d="M428.7,428.1v8.5h-51.3v24.2h-6.7v-32.6l0.6-6.7c-0.6,1.2-1.2,1.8-1.8,2.4c-9.7,10.9-11.5,28.4-5.4,41.7
		c1.2,1.8,3.6,5.4,4.2,6.6c1.2,1.2,2.4,2.4,3,3.6l-0.6-4.2v-10.9H422v6.6h-44.7v21.1c-13.3-7.3-21.1-20.5-23.6-34.4
		c-1.8-18.7,7.3-36.8,23.6-45.9v21.7H422v-21.7c13.3,7.9,21.7,21.7,23.6,36.8c0.6,18.1-7.2,34.4-23.6,43.5v-51.9h6.7v35l-0.6,3.6
		c0-0.6,1.8-1.8,2.4-3c1.2-1.2,3.6-4.8,4.2-6.6c6.7-13.3,4.8-30.8-4.8-41.7c-0.6-1.2-1.8-1.2-1.8-2.4L428.7,428.1L428.7,428.1z"/>
	<path class="st3" d="M200.4,318.7c4.2,1.2,12.7,2.4,15.7,6.6c1.8,1.8,1.8,4.2,1.8,5.4c0,8.5-9.1,10.9-10.9,11.5
		c-3,0.6-6,0.6-6.6,0.6c-17.5,0-24.8-7.9-29-13.9l-14.5,10.3c1.2,1.8,3,4.2,4.8,6c12.7,13.3,30.2,13.3,35.6,13.3
		c4.2,0,19.3,0,30.2-9.7c6-4.8,9.1-11.5,9.1-19.9c0-8.5-3-12.7-5.4-15.7c-6-6.6-15.7-9.7-24.8-11.5l-9.1-1.8
		c-8.5-1.8-13.9-3-16.3-7.3c-0.6-1.2-0.6-2.4-0.6-4.2c0-1.2,0-2.4,0.6-3.6c4.2-7.2,15.7-7.2,16.3-7.2c14.5,0,21.1,9.1,24.2,13.9
		l13.9-10.9c-12.7-17.5-29-18.7-36.8-18.7c-18.7,0-29,8.5-33.2,15.1c-3,5.4-3,11.5-3,13.9c0,13.3,8.5,18.7,12.7,21.1
		c4.2,2.4,9.7,3,13.9,4.2L200.4,318.7L200.4,318.7z"/>
	<path class="st3" d="M319.4,324.2c-0.6-14.5-3.6-23-7.3-27.8c-3.6-5.4-12.1-13.9-28.4-13.9c-20.5,0-29.6,13.3-32.6,20.5
		c-2.4,5.4-3,10.9-3,16.9c0,11.5,3,21.1,10.9,29c9.7,9.1,21.1,9.7,26,9.7c14.5,0,24.2-7.3,28.4-10.9c3-3,5.4-6,6.6-7.3l-15.1-8.5
		c-0.6,1.2-1.8,2.4-2.4,3c-1.8,2.4-7.3,6.7-16.3,6.7c-8.5,0-13.3-3.6-15.7-6.7c-3.6-4.2-4.2-9.1-4.2-10.9H319.4L319.4,324.2z
		 M266.8,311.5c0-2.4,1.8-10.9,10.3-13.9c1.2-0.6,3.6-1.2,7.3-1.2c9.1,0,12.7,5.4,14.5,9.1c1.2,2.4,1.2,4.8,1.2,5.4L266.8,311.5
		L266.8,311.5z"/>
	<path class="st3" d="M352,284.3h-16.9v71.9H352v-30.8c0-3.6,0-7.2,1.2-11.5c4.2-13.3,17.5-13.3,21.1-13.3v-17.5h-1.2
		c-1.8,0-11.5,0-16.9,6c-1.8,1.2-3,3.6-4.2,5.4V284.3L352,284.3z"/>
	<polygon class="st3" points="446.2,284.3 428.1,284.3 413.6,333.8 398.5,284.3 381,284.3 403.9,356.2 422.6,356.2 446.2,284.3 	"/>
	<path class="st3" d="M459.5,273.4h16.9v-17.5h-16.9V273.4L459.5,273.4z M459.5,356.2h16.9v-71.9h-16.9V356.2L459.5,356.2z"/>
	<path class="st3" d="M544.7,328.4c-1.2,3-4.8,13.9-17.5,13.9c-9.1,0-14.5-6-16.9-14.5c-0.6-1.2-1.2-4.2-1.2-7.9
		c0-2.4,0-10.3,5.4-16.3c3.6-4.2,7.2-6,12.7-6c6.7,0,9.7,3,12.1,4.8c0.6,1.2,3,3.6,4.2,7.3l15.1-6.7c-4.8-11.5-13.3-16.3-17.5-18.1
		c-4.2-1.8-8.5-2.4-13.3-2.4c-16.3,0-25.4,9.1-28.4,13.9c-5.4,6.6-7.9,15.1-7.9,24.2c0,6,1.2,26,20.5,34.4c6.6,3,12.1,3.6,15.1,3.6
		c10.9,0,21.1-4.8,27.8-13.9c1.8-2.4,3.6-5.4,4.2-8.5L544.7,328.4L544.7,328.4z"/>
	<path class="st3" d="M638.3,324.2c-0.6-14.5-3.6-23-7.3-27.8c-3.6-5.4-12.1-13.9-27.8-13.9c-21.1,0-30.2,13.3-33.2,20.5
		c-2.4,5.4-3,10.9-3,16.9c0,11.5,3,21.1,10.9,29c10.3,9.1,21.2,9.7,26,9.7c14.5,0,24.1-7.3,28.4-10.9c3.6-3,5.4-6,6.7-7.3l-14.5-8.5
		c-1.2,1.2-1.8,2.4-2.4,3c-2.4,2.4-7.9,6.7-16.3,6.7c-9.1,0-13.3-3.6-15.7-6.7c-3.6-4.2-4.8-9.1-4.8-10.9H638.3L638.3,324.2z
		 M585.7,311.5c0.6-2.4,2.4-10.9,10.3-13.9c1.2-0.6,3.6-1.2,7.2-1.2c9.1,0,13.3,5.4,14.5,9.1c1.2,2.4,1.2,4.8,1.8,5.4L585.7,311.5
		L585.7,311.5z"/>
	<polygon class="st4" points="127.9,387 399.7,554.9 670.9,387 670.9,571.8 127.9,571.8 127.9,387 	"/>
	<polygon class="st4" points="127.9,28.8 670.9,28.8 670.9,81.3 127.9,81.3 127.9,28.8 	"/>
</g>
</svg>
