<svg xmlns="http://www.w3.org/2000/svg" xmlns:xlink="http://www.w3.org/1999/xlink" version="1.1" width="256" height="256" viewBox="0 0 256 256" xml:space="preserve">

<defs>
</defs>
<g style="stroke: none; stroke-width: 0; stroke-dasharray: none; stroke-linecap: butt; stroke-linejoin: miter; stroke-miterlimit: 10; fill: none; fill-rule: nonzero; opacity: 1;" transform="translate(1.4065934065934016 1.4065934065934016) scale(2.81 2.81)" >
	<path d="M 28.321 88.8 l 8.62 -14.931 l 8.62 -14.931 c 0.923 -1.599 -0.231 -3.599 -2.078 -3.599 H 32.619 C 35.603 30.948 56.43 11.99 81.616 11.99 c 0.985 0 1.784 -0.799 1.784 -1.784 V 1.784 C 83.4 0.799 82.601 0 81.616 0 c -31.804 0 -58.03 24.321 -61.068 55.341 H 9.003 c -1.847 0 -3.001 1.999 -2.078 3.599 l 8.62 14.931 l 8.62 14.931 C 25.089 90.4 27.398 90.4 28.321 88.8 z" style="stroke: none; stroke-width: 1; stroke-dasharray: none; stroke-linecap: butt; stroke-linejoin: miter; stroke-miterlimit: 10; fill: rgb(255,255,255); fill-rule: nonzero; opacity: 1;" transform=" matrix(1 0 0 1 0 0) " stroke-linecap="round" />
</g>
</svg>