<?xml version="1.0" encoding="UTF-8" standalone="no" ?>
<!DOCTYPE svg PUBLIC "-//W3C//DTD SVG 1.1//EN" "http://www.w3.org/Graphics/SVG/1.1/DTD/svg11.dtd">
<svg xmlns="http://www.w3.org/2000/svg" xmlns:xlink="http://www.w3.org/1999/xlink" version="1.1" width="2160" height="1080" viewBox="425 425 230 230" xml:space="preserve">
<desc>Created with Fabric.js 5.2.4</desc>
<defs>
</defs>
<rect x="0" y="0" width="100%" height="100%" fill="transparent"></rect>
<g transform="matrix(1 0 0 1 540 540)" id="b6b287c7-b1d1-4296-82b6-c6f0882cd57d"  >
</g>
<g transform="matrix(1 0 0 1 540 540)" id="78788078-b898-41f5-b362-57dd087d0a46"  >
<rect style="stroke: none; stroke-width: 1; stroke-dasharray: none; stroke-linecap: butt; stroke-dashoffset: 0; stroke-linejoin: miter; stroke-miterlimit: 4; fill: rgb(255,255,255); fill-rule: nonzero; opacity: 1; visibility: hidden;" vector-effect="non-scaling-stroke"  x="-540" y="-540" rx="0" ry="0" width="1080" height="1080" />
</g>
<g transform="matrix(1 0 0 1 540 540)"  >
<rect style="stroke: none; stroke-width: 1; stroke-dasharray: none; stroke-linecap: butt; stroke-dashoffset: 0; stroke-linejoin: miter; stroke-miterlimit: 4; fill: rgb(255,255,255); fill-rule: nonzero; opacity: 1; visibility: hidden;" vector-effect="non-scaling-stroke"  x="-540" y="-540" rx="0" ry="0" width="1080" height="1080" />
</g>
<g transform="matrix(0.13 0 0 -0.13 403.43 540)"  >
<path style="stroke: none; stroke-width: 1; stroke-dasharray: none; stroke-linecap: butt; stroke-dashoffset: 0; stroke-linejoin: miter; stroke-miterlimit: 4; fill: rgb(22,95,124); fill-rule: nonzero; opacity: 1;" vector-effect="non-scaling-stroke"  transform=" translate(-900.07, -1112.63)" d="M 689 1441 C 631 1433 603 1417 517 1347 C 470 1309 469 1308 425 1319 C 356 1336 243 1334 236 1314 C 221 1274 229 1263 283 1254 C 321 1247 334 1240 332 1230 C 322 1189 312 1095 316 1088 C 319 1084 414 1080 528 1080 L 736 1080 L 783 1128 C 809 1154 830 1183 830 1191 C 830 1212 850 1230 875 1230 C 904 1230 920 1211 920 1178 C 920 1157 914 1147 898 1141 C 885 1136 872 1134 869 1136 C 866 1138 839 1115 810 1085 L 756 1030 L 533 1030 C 410 1030 310 1027 310 1023 C 310 986 332 840 341 813 L 352 780 L 446 780 C 539 780 540 780 546 806 C 553 831 555 832 605 827 L 657 822 L 782 948 C 860 1027 910 1086 914 1103 C 923 1142 963 1159 990 1135 C 1023 1105 1011 1050 970 1050 C 962 1050 901 996 836 931 L 717 812 L 813 805 C 898 798 969 803 1192 827 C 1246 832 1248 832 1252 809 C 1255 786 1258 785 1352 782 L 1449 779 L 1464 832 C 1472 861 1482 913 1485 948 L 1492 1010 L 1388 1010 L 1284 1010 L 1243 968 C 1221 944 1200 913 1196 898 C 1186 854 1118 848 1105 891 C 1095 923 1109 950 1140 956 C 1155 960 1189 984 1216 1011 L 1264 1060 L 1379 1060 L 1493 1060 L 1486 1125 C 1482 1161 1475 1201 1470 1215 C 1459 1244 1461 1246 1523 1255 C 1571 1262 1579 1274 1564 1314 C 1557 1333 1444 1336 1375 1319 C 1331 1308 1331 1308 1268 1359 C 1166 1442 1162 1443 940 1446 C 833 1447 720 1445 689 1441 z M 1143 1380 C 1164 1374 1200 1350 1223 1327 L 1265 1285 L 1173 1282 L 1080 1279 L 1080 1167 C 1081 1084 1084 1050 1095 1036 C 1115 1009 1114 986 1090 965 C 1048 927 988 982 1019 1031 C 1025 1042 1030 1096 1030 1165 L 1030 1280 L 785 1280 L 540 1280 L 555 1304 C 585 1350 644 1381 717 1390 C 804 1401 1093 1394 1143 1380 z" stroke-linecap="round" />
</g>
<g transform="matrix(0.13 0 0 -0.13 424.28 554.74)"  >
<path style="stroke: none; stroke-width: 1; stroke-dasharray: none; stroke-linecap: butt; stroke-dashoffset: 0; stroke-linejoin: miter; stroke-miterlimit: 4; fill: rgb(22,95,124); fill-rule: nonzero; opacity: 1;" vector-effect="non-scaling-stroke"  transform=" translate(-1056.49, -1002.11)" d="M 1040 1015 C 1025 997 1035 980 1061 980 C 1073 980 1080 987 1080 999 C 1080 1023 1055 1033 1040 1015 z" stroke-linecap="round" />
</g>
<g transform="matrix(0.13 0 0 -0.13 400.11 530.38)"  >
<path style="stroke: none; stroke-width: 1; stroke-dasharray: none; stroke-linecap: butt; stroke-dashoffset: 0; stroke-linejoin: miter; stroke-miterlimit: 4; fill: rgb(22,95,124); fill-rule: nonzero; opacity: 1;" vector-effect="non-scaling-stroke"  transform=" translate(-875.15, -1184.81)" d="M 854 1195 C 850 1186 852 1174 858 1168 C 873 1153 902 1167 898 1187 C 894 1210 862 1216 854 1195 z" stroke-linecap="round" />
</g>
<g transform="matrix(0.13 0 0 -0.13 412.06 542.17)"  >
<path style="stroke: none; stroke-width: 1; stroke-dasharray: none; stroke-linecap: butt; stroke-dashoffset: 0; stroke-linejoin: miter; stroke-miterlimit: 4; fill: rgb(22,95,124); fill-rule: nonzero; opacity: 1;" vector-effect="non-scaling-stroke"  transform=" translate(-964.75, -1096.36)" d="M 943 1104 C 940 1096 942 1084 949 1077 C 963 1063 996 1092 986 1109 C 976 1125 950 1122 943 1104 z" stroke-linecap="round" />
</g>
<g transform="matrix(0.13 0 0 -0.13 436.76 567.02)"  >
<path style="stroke: none; stroke-width: 1; stroke-dasharray: none; stroke-linecap: butt; stroke-dashoffset: 0; stroke-linejoin: miter; stroke-miterlimit: 4; fill: rgb(22,95,124); fill-rule: nonzero; opacity: 1;" vector-effect="non-scaling-stroke"  transform=" translate(-1150, -910)" d="M 1130 910 C 1130 897 1137 890 1150 890 C 1163 890 1170 897 1170 910 C 1170 923 1163 930 1150 930 C 1137 930 1130 923 1130 910 z" stroke-linecap="round" />
</g>
<g transform="matrix(0.16 0 0 -0.16 520.56 539.74)"  >
<path style="stroke: none; stroke-width: 1; stroke-dasharray: none; stroke-linecap: butt; stroke-dashoffset: 0; stroke-linejoin: miter; stroke-miterlimit: 4; fill: rgb(239,124,18); fill-rule: nonzero; opacity: 1;" vector-effect="non-scaling-stroke"  transform=" translate(-200.15, -492.17)" d="M 122 610 C 13 543 57 369 187 354 C 261 345 340 414 340 487 C 340 600 218 668 122 610 z M 247 548 C 292 505 260 410 200 410 C 169 410 130 454 130 488 C 130 528 165 570 198 570 C 212 570 234 560 247 548 z" stroke-linecap="round" />
</g>
<g transform="matrix(0.16 0 0 -0.16 561.56 540.1)"  >
<path style="stroke: none; stroke-width: 1; stroke-dasharray: none; stroke-linecap: butt; stroke-dashoffset: 0; stroke-linejoin: miter; stroke-miterlimit: 4; fill: rgb(239,124,18); fill-rule: nonzero; opacity: 1;" vector-effect="non-scaling-stroke"  transform=" translate(-453.5, -490)" d="M 420 619 C 331 583 340 499 438 460 C 492 439 479 420 410 420 L 350 420 L 350 385 L 350 350 L 411 350 C 485 350 534 371 550 411 C 569 455 549 494 494 519 C 470 531 450 545 450 550 C 450 556 473 560 500 560 L 550 560 L 550 595 L 550 630 L 498 629 C 469 629 434 624 420 619 z" stroke-linecap="round" />
</g>
<g transform="matrix(0.16 0 0 -0.16 603.06 539.28)"  >
<path style="stroke: none; stroke-width: 1; stroke-dasharray: none; stroke-linecap: butt; stroke-dashoffset: 0; stroke-linejoin: miter; stroke-miterlimit: 4; fill: rgb(239,124,18); fill-rule: nonzero; opacity: 1;" vector-effect="non-scaling-stroke"  transform=" translate(-710, -495)" d="M 614 495 L 563 360 L 605 360 C 642 360 649 363 654 385 C 660 407 666 410 705 410 C 744 410 752 407 760 385 C 768 364 776 360 813 360 L 857 360 L 806 495 L 755 630 L 710 630 L 665 630 L 614 495 z M 729 519 C 745 473 743 470 710 470 C 694 470 680 474 680 479 C 680 497 702 550 710 550 C 714 550 723 536 729 519 z" stroke-linecap="round" />
</g>
<g transform="matrix(0.16 0 0 -0.16 748.88 540.07)"  >
<path style="stroke: none; stroke-width: 1; stroke-dasharray: none; stroke-linecap: butt; stroke-dashoffset: 0; stroke-linejoin: miter; stroke-miterlimit: 4; fill: rgb(22,95,124); fill-rule: nonzero; opacity: 1;" vector-effect="non-scaling-stroke"  transform=" translate(-1611.15, -490.1)" d="M 1596 620 C 1520 597 1467 502 1489 428 C 1503 382 1537 362 1618 354 C 1680 347 1683 349 1694 393 C 1700 419 1699 420 1657 420 C 1634 420 1604 427 1592 436 C 1562 457 1563 504 1595 535 C 1615 556 1629 560 1675 560 C 1712 560 1730 564 1730 573 C 1730 579 1733 595 1736 608 C 1742 629 1740 630 1684 629 C 1651 629 1612 624 1596 620 z" stroke-linecap="round" />
</g>
<g transform="matrix(0.16 0 0 -0.16 659.78 540.16)"  >
<path style="stroke: none; stroke-width: 1; stroke-dasharray: none; stroke-linecap: butt; stroke-dashoffset: 0; stroke-linejoin: miter; stroke-miterlimit: 4; fill: rgb(22,95,124); fill-rule: nonzero; opacity: 1;" vector-effect="non-scaling-stroke"  transform=" translate(-1060.5, -489.5)" d="M 983 603 C 980 593 968 563 957 535 C 947 508 928 457 915 423 L 891 360 L 930 360 C 969 360 969 360 992 423 L 1015 485 L 1018 422 L 1021 359 L 1057 362 C 1091 365 1095 369 1115 417 C 1145 492 1154 494 1146 423 L 1139 360 L 1178 360 C 1214 360 1218 363 1224 391 C 1227 408 1230 467 1230 521 L 1230 620 L 1181 620 L 1133 620 L 1109 558 L 1085 495 L 1082 558 L 1079 620 L 1034 620 C 1001 620 988 616 983 603 z" stroke-linecap="round" />
</g>
<g transform="matrix(0.16 0 0 -0.16 709.86 540.17)"  >
<path style="stroke: none; stroke-width: 1; stroke-dasharray: none; stroke-linecap: butt; stroke-dashoffset: 0; stroke-linejoin: miter; stroke-miterlimit: 4; fill: rgb(22,95,124); fill-rule: nonzero; opacity: 1;" vector-effect="non-scaling-stroke"  transform=" translate(-1370, -489.53)" d="M 1295 608 C 1288 587 1250 388 1250 374 C 1250 352 1436 354 1444 376 C 1458 413 1451 420 1402 420 C 1349 420 1339 425 1347 446 C 1350 455 1368 460 1400 460 C 1449 460 1460 469 1460 511 C 1460 527 1453 530 1410 530 C 1370 530 1362 533 1366 545 C 1370 556 1387 560 1425 560 C 1471 560 1478 563 1484 583 C 1487 595 1490 608 1490 613 C 1490 626 1300 621 1295 608 z" stroke-linecap="round" />
</g>
<g transform="matrix(0 0 0 0 0 0)"  >
<g style=""   >
</g>
</g>
<g transform="matrix(NaN NaN NaN NaN 0 0)"  >
<g style=""   >
</g>
</g>
<g transform="matrix(NaN NaN NaN NaN 0 0)"  >
<g style=""   >
</g>
</g>
</svg>