<?xml version="1.0" encoding="UTF-8" standalone="no" ?>
<!DOCTYPE svg PUBLIC "-//W3C//DTD SVG 1.1//EN" "http://www.w3.org/Graphics/SVG/1.1/DTD/svg11.dtd">
<svg xmlns="http://www.w3.org/2000/svg" xmlns:xlink="http://www.w3.org/1999/xlink" version="1.1" width="2160" height="1080" viewBox="465 465 150 150" xml:space="preserve">
<desc>Created with Fabric.js 5.2.4</desc>
<defs>
</defs>
<g transform="matrix(1 0 0 1 540 540)" id="9c59ee41-e966-402a-a2ff-3a6ca648ad5a"  >
<rect style="stroke: none; stroke-width: 1; stroke-dasharray: none; stroke-linecap: butt; stroke-dashoffset: 0; stroke-linejoin: miter; stroke-miterlimit: 4; fill: rgb(255,255,255); fill-rule: nonzero; opacity: 1; visibility: hidden;" vector-effect="non-scaling-stroke"  x="-540" y="-540" rx="0" ry="0" width="1080" height="1080" />
</g>
<g transform="matrix(1 0 0 1 540 540)" id="2e81873e-89b5-497a-92f5-f40742661a67"  >
</g>
<g transform="matrix(1 0 0 1 33.28 66.72)"  >
<rect style="stroke: none; stroke-width: 1; stroke-dasharray: none; stroke-linecap: butt; stroke-dashoffset: 0; stroke-linejoin: miter; stroke-miterlimit: 4; fill: rgb(255,255,255); fill-opacity: 0; fill-rule: nonzero; opacity: 1;" vector-effect="non-scaling-stroke"  x="-50" y="-50" rx="0" ry="0" width="100" height="100" />
</g>
<g transform="matrix(1 0 0 1 523.28 556.72)"  >
<rect style="stroke: none; stroke-width: 1; stroke-dasharray: none; stroke-linecap: butt; stroke-dashoffset: 0; stroke-linejoin: miter; stroke-miterlimit: 4; fill: rgb(255,255,255); fill-rule: nonzero; opacity: 1; visibility: hidden;" vector-effect="non-scaling-stroke"  x="-540" y="-540" rx="0" ry="0" width="1080" height="1080" />
</g>
<g transform="matrix(1 0 0 1 523.28 556.72)"  >
<rect style="stroke: none; stroke-width: 1; stroke-dasharray: none; stroke-linecap: butt; stroke-dashoffset: 0; stroke-linejoin: miter; stroke-miterlimit: 4; fill: rgb(255,255,255); fill-rule: nonzero; opacity: 1; visibility: hidden;" vector-effect="non-scaling-stroke"  x="-540" y="-540" rx="0" ry="0" width="1080" height="1080" />
</g>
<g transform="matrix(0.16 0 0 -0.16 426.86 539.74)"  >
<path style="stroke: none; stroke-width: 1; stroke-dasharray: none; stroke-linecap: butt; stroke-dashoffset: 0; stroke-linejoin: miter; stroke-miterlimit: 4; fill: rgb(239,124,18); fill-rule: nonzero; opacity: 1;" vector-effect="non-scaling-stroke"  transform=" translate(-200.15, -492.17)" d="M 122 610 C 13 543 57 369 187 354 C 261 345 340 414 340 487 C 340 600 218 668 122 610 z M 247 548 C 292 505 260 410 200 410 C 169 410 130 454 130 488 C 130 528 165 570 198 570 C 212 570 234 560 247 548 z" stroke-linecap="round" />
</g>
<g transform="matrix(0.16 0 0 -0.16 467.85 540.1)"  >
<path style="stroke: none; stroke-width: 1; stroke-dasharray: none; stroke-linecap: butt; stroke-dashoffset: 0; stroke-linejoin: miter; stroke-miterlimit: 4; fill: rgb(239,124,18); fill-rule: nonzero; opacity: 1;" vector-effect="non-scaling-stroke"  transform=" translate(-453.5, -490)" d="M 420 619 C 331 583 340 499 438 460 C 492 439 479 420 410 420 L 350 420 L 350 385 L 350 350 L 411 350 C 485 350 534 371 550 411 C 569 455 549 494 494 519 C 470 531 450 545 450 550 C 450 556 473 560 500 560 L 550 560 L 550 595 L 550 630 L 498 629 C 469 629 434 624 420 619 z" stroke-linecap="round" />
</g>
<g transform="matrix(0.16 0 0 -0.16 509.35 539.28)"  >
<path style="stroke: none; stroke-width: 1; stroke-dasharray: none; stroke-linecap: butt; stroke-dashoffset: 0; stroke-linejoin: miter; stroke-miterlimit: 4; fill: rgb(239,124,18); fill-rule: nonzero; opacity: 1;" vector-effect="non-scaling-stroke"  transform=" translate(-710, -495)" d="M 614 495 L 563 360 L 605 360 C 642 360 649 363 654 385 C 660 407 666 410 705 410 C 744 410 752 407 760 385 C 768 364 776 360 813 360 L 857 360 L 806 495 L 755 630 L 710 630 L 665 630 L 614 495 z M 729 519 C 745 473 743 470 710 470 C 694 470 680 474 680 479 C 680 497 702 550 710 550 C 714 550 723 536 729 519 z" stroke-linecap="round" />
</g>
<g transform="matrix(0.16 0 0 -0.16 655.17 540.07)"  >
<path style="stroke: none; stroke-width: 1; stroke-dasharray: none; stroke-linecap: butt; stroke-dashoffset: 0; stroke-linejoin: miter; stroke-miterlimit: 4; fill: rgb(22,95,124); fill-rule: nonzero; opacity: 1;" vector-effect="non-scaling-stroke"  transform=" translate(-1611.15, -490.1)" d="M 1596 620 C 1520 597 1467 502 1489 428 C 1503 382 1537 362 1618 354 C 1680 347 1683 349 1694 393 C 1700 419 1699 420 1657 420 C 1634 420 1604 427 1592 436 C 1562 457 1563 504 1595 535 C 1615 556 1629 560 1675 560 C 1712 560 1730 564 1730 573 C 1730 579 1733 595 1736 608 C 1742 629 1740 630 1684 629 C 1651 629 1612 624 1596 620 z" stroke-linecap="round" />
</g>
<g transform="matrix(0.16 0 0 -0.16 566.07 540.16)"  >
<path style="stroke: none; stroke-width: 1; stroke-dasharray: none; stroke-linecap: butt; stroke-dashoffset: 0; stroke-linejoin: miter; stroke-miterlimit: 4; fill: rgb(22,95,124); fill-rule: nonzero; opacity: 1;" vector-effect="non-scaling-stroke"  transform=" translate(-1060.5, -489.5)" d="M 983 603 C 980 593 968 563 957 535 C 947 508 928 457 915 423 L 891 360 L 930 360 C 969 360 969 360 992 423 L 1015 485 L 1018 422 L 1021 359 L 1057 362 C 1091 365 1095 369 1115 417 C 1145 492 1154 494 1146 423 L 1139 360 L 1178 360 C 1214 360 1218 363 1224 391 C 1227 408 1230 467 1230 521 L 1230 620 L 1181 620 L 1133 620 L 1109 558 L 1085 495 L 1082 558 L 1079 620 L 1034 620 C 1001 620 988 616 983 603 z" stroke-linecap="round" />
</g>
<g transform="matrix(0.16 0 0 -0.16 616.15 540.17)"  >
<path style="stroke: none; stroke-width: 1; stroke-dasharray: none; stroke-linecap: butt; stroke-dashoffset: 0; stroke-linejoin: miter; stroke-miterlimit: 4; fill: rgb(22,95,124); fill-rule: nonzero; opacity: 1;" vector-effect="non-scaling-stroke"  transform=" translate(-1370, -489.53)" d="M 1295 608 C 1288 587 1250 388 1250 374 C 1250 352 1436 354 1444 376 C 1458 413 1451 420 1402 420 C 1349 420 1339 425 1347 446 C 1350 455 1368 460 1400 460 C 1449 460 1460 469 1460 511 C 1460 527 1453 530 1410 530 C 1370 530 1362 533 1366 545 C 1370 556 1387 560 1425 560 C 1471 560 1478 563 1484 583 C 1487 595 1490 608 1490 613 C 1490 626 1300 621 1295 608 z" stroke-linecap="round" />
</g>
</svg>